<?xml version="1.0" encoding="UTF-8"?>
<svg xmlns="http://www.w3.org/2000/svg" viewBox="0 0 825.6 144.49" width="200">
  <defs>
    <style>
      .cls-1 {
        fill: #4E5077;
      }

      .cls-2 {
        fill: #87c241;
      }
    </style>
  </defs>
  <g>
    <path class="cls-2" d="m399.78,64.52c21.39,0,42.77,0,64.16,0,6.23,0,9.88,5.92,7.07,11.49-1.27,2.53-3.39,3.78-6.18,3.97-.27.02-.54,0-.81,0-42.88,0-85.76,0-128.64,0-6.05,0-9.7-5.78-7.1-11.27,1.38-2.92,3.81-4.2,7.01-4.2,21.49.01,42.99,0,64.48,0Z"/>
    <path class="cls-2" d="m342.95,15.5c0,7.85.01,15.46,0,23.08-.01,6.04-5.8,9.66-11.29,7.06-2.66-1.26-4.13-3.44-4.15-6.38-.06-9.13-.09-18.26,0-27.38.06-6.12,5.73-11.76,11.85-11.82,9.13-.09,18.25-.06,27.38,0,4.11.02,7.16,3.44,7.14,7.77-.02,4.32-3.09,7.64-7.25,7.66-7.25.05-14.5.01-21.74.02-.58,0-1.16,0-1.95,0Z"/>
    <path class="cls-2" d="m456.46,15.5c-.79,0-1.37,0-1.95,0-7.19,0-14.39.02-21.58-.01-4.27-.02-7.38-3.29-7.4-7.67-.02-4.47,3.1-7.76,7.46-7.78,8.91-.03,17.83-.04,26.74,0,6.48.03,12.15,5.68,12.19,12.16.05,8.97.04,17.93,0,26.9-.02,4.24-3.34,7.34-7.74,7.33-4.39,0-7.68-3.12-7.7-7.37-.03-7.19-.01-14.39-.01-21.58,0-.58,0-1.17,0-1.98Z"/>
    <path class="cls-2" d="m342.95,129c7.73,0,15.24,0,22.75,0,.75,0,1.52-.02,2.24.13,3.84.81,6.3,4.32,5.92,8.38-.38,4.09-3.4,6.93-7.47,6.94-8.86.02-17.72.04-26.58,0-6.66-.03-12.3-5.69-12.33-12.36-.03-8.81-.02-17.61,0-26.42,0-4.49,3.25-7.64,7.78-7.62,4.45.02,7.66,3.15,7.67,7.56.02,7.14,0,14.28,0,21.42,0,.58,0,1.16,0,1.95Z"/>
    <path class="cls-2" d="m456.46,129c0-.73,0-1.3,0-1.88,0-7.03,0-14.07,0-21.1,0-4.79,3.12-7.97,7.77-7.96,4.57.01,7.69,3.19,7.69,7.87,0,8.59.01,17.18,0,25.77-.01,7.19-5.56,12.75-12.75,12.76-8.64.02-17.29.01-25.93,0-4.54,0-7.7-3.17-7.72-7.68-.02-4.59,3.15-7.77,7.78-7.78,7.09-.01,14.18,0,21.26,0,.58,0,1.15,0,1.89,0Z"/>
  </g>
  <path class="cls-1" d="m5.4,137.04c-3.6-3.47-5.4-8-5.4-13.6V2.24h69.6c12.67,0,22.83,3,30.5,9,7.67,6,11.5,14.07,11.5,24.2v10c0,4.4-1.1,8.6-3.3,12.6-2.2,4-5.3,7.27-9.3,9.8v.2c6.4,2.27,11.57,5.93,15.5,11,3.93,5.07,5.9,10.73,5.9,17v10.4c0,10.93-3.97,19.63-11.9,26.1-7.93,6.47-18.63,9.7-32.1,9.7H19.4c-5.73,0-10.4-1.73-14-5.2ZM69.6,60.24c4.27,0,7.73-1.37,10.4-4.1,2.67-2.73,4-6.37,4-10.9v-6.8c0-3.73-1.4-6.7-4.2-8.9-2.8-2.2-6.53-3.3-11.2-3.3H27.6v34h42Zm4.8,58c5.87,0,10.4-1.17,13.6-3.5,3.2-2.33,4.8-5.63,4.8-9.9v-8.8c0-3.87-1.4-7-4.2-9.4s-6.53-3.6-11.2-3.6H27.6v35.2h46.8Z"/>
  <path class="cls-1" d="m177.95,137.14c-3.53-3.4-5.3-7.9-5.3-13.5V2.24h27.6v116h76v24h-84.2c-5.87,0-10.57-1.7-14.1-5.1Z"/>
  <path class="cls-1" d="m553.25,137.24c-7.8-4.4-13.83-10.63-18.1-18.7-4.27-8.07-6.4-17.37-6.4-27.9v-36.8c0-10.53,2.17-19.83,6.5-27.9,4.33-8.07,10.47-14.3,18.4-18.7,7.93-4.4,17.1-6.6,27.5-6.6h21.2c10,0,18.8,2.13,26.4,6.4,7.6,4.27,13.5,10.23,17.7,17.9,4.2,7.67,6.3,16.57,6.3,26.7h-27.2c0-8-2.13-14.43-6.4-19.3-4.27-4.87-9.87-7.3-16.8-7.3h-21.2c-7.47,0-13.47,2.77-18,8.3-4.53,5.53-6.8,12.77-6.8,21.7v34.4c0,8.93,2.2,16.17,6.6,21.7,4.4,5.53,10.2,8.3,17.4,8.3h21.6c7.07,0,12.83-2.73,17.3-8.2,4.47-5.47,6.7-12.67,6.7-21.6h27.2c0,10.8-2.13,20.3-6.4,28.5-4.27,8.2-10.27,14.53-18,19-7.73,4.47-16.67,6.7-26.8,6.7h-21.6c-10.27,0-19.3-2.2-27.1-6.6Z"/>
  <path class="cls-1" d="m792,142.24l-46.2-58.8-13.4,14.4v44.4h-27.6V2.24h27.6v60.4l55.6-60.4h34l-57.6,61.4,61.2,78.6h-33.6Z"/>
</svg>