<svg xmlns="http://www.w3.org/2000/svg" width="24" height="24" fill="#d2d2dc" viewBox="0 0 24 24">
    <path fill-rule="evenodd" d="M1.25 2C1.25 1.58579 1.58579 1.25 2 1.25H10.5C10.9142 1.25 11.25 1.58579 11.25 2V10.5C11.25 10.9142 10.9142 11.25 10.5 11.25H2C1.58579 11.25 1.25 10.9142 1.25 10.5V9C1.25 8.58579 1.58579 8.25 2 8.25 2.41421 8.25 2.75 8.58579 2.75 9V9.75H9.75V2.75H2.75V5C2.75 5.41421 2.41421 5.75 2 5.75 1.58579 5.75 1.25 5.41421 1.25 5V2zM1.25 13.5C1.25 13.0858 1.58579 12.75 2 12.75H10.5C10.9142 12.75 11.25 13.0858 11.25 13.5V22C11.25 22.4142 10.9142 22.75 10.5 22.75H2C1.58579 22.75 1.25 22.4142 1.25 22V13.5zM2.75 14.25V21.25H9.75V14.25H2.75z" clip-rule="evenodd"></path>
    <path fill-rule="evenodd" d="M3.75 4.5C3.75 4.08579 4.08579 3.75 4.5 3.75H8C8.41421 3.75 8.75 4.08579 8.75 4.5V8C8.75 8.41421 8.41421 8.75 8 8.75H4.5C4.08579 8.75 3.75 8.41421 3.75 8V4.5zM5.25 5.25V7.25H7.25V5.25H5.25zM3.75 16C3.75 15.5858 4.08579 15.25 4.5 15.25H8C8.41421 15.25 8.75 15.5858 8.75 16V19.5C8.75 19.9142 8.41421 20.25 8 20.25H4.5C4.08579 20.25 3.75 19.9142 3.75 19.5V16zM5.25 16.75V18.75H7.25V16.75H5.25zM15.25 4.5C15.25 4.08579 15.5858 3.75 16 3.75H19.5C19.9142 3.75 20.25 4.08579 20.25 4.5V8C20.25 8.41421 19.9142 8.75 19.5 8.75H16C15.5858 8.75 15.25 8.41421 15.25 8V4.5zM16.75 5.25V7.25H18.75V5.25H16.75z" clip-rule="evenodd"></path>
    <path fill-rule="evenodd" d="M12.75 2C12.75 1.58579 13.0858 1.25 13.5 1.25H22C22.4142 1.25 22.75 1.58579 22.75 2V10.5C22.75 10.9142 22.4142 11.25 22 11.25H13.5C13.0858 11.25 12.75 10.9142 12.75 10.5V2zM14.25 2.75V9.75H21.25V2.75H14.25z" clip-rule="evenodd"></path>
    <path d="M13.75,13.75 L21.5,21.5" stroke-linecap="round" stroke-linejoin="round" stroke="#d2d2dc" stroke-width="2"></path>
    <path d="M21.5,13.75 L13.75,21.5" stroke-linecap="round" stroke-linejoin="round" stroke="#d2d2dc" stroke-width="2"></path>
</svg>
